<svg width="105" height="32" viewBox="0 0 105 32" fill="none" xmlns="http://www.w3.org/2000/svg">
<path d="M6.177 28.5731C8.97862 30.7463 12.4233 31.9261 15.969 31.9271C20.005 31.9271 23.683 30.4271 26.49 27.9691C26.526 27.9381 26.511 27.9221 26.474 27.9381C25.214 28.7821 21.625 30.6201 15.969 30.6201C11.058 30.6201 7.953 29.5211 6.198 28.5421C6.162 28.5261 6.151 28.5521 6.177 28.5731ZM17.052 29.3851C20.984 29.3851 25.302 28.3171 27.885 26.1971C28.593 25.6191 29.265 24.8481 29.869 23.8171C30.2349 23.1737 30.555 22.5054 30.827 21.8171C30.843 21.7861 30.822 21.7701 30.796 21.8071C28.395 25.3431 21.437 27.5471 14.26 27.5471C9.182 27.5471 3.718 25.9221 1.583 22.8231C1.562 22.7971 1.541 22.8071 1.552 22.8391C3.542 27.0731 9.588 29.3851 17.052 29.3851ZM12.76 22.3651C4.588 22.3651 0.734 18.5581 0.031 15.9591C0.026 15.9231 0 15.9281 0 15.9641C0 16.8391 0.089 17.9691 0.24 18.7141C0.308 19.0791 0.605 19.6521 1.042 20.1101C3.021 22.1731 7.959 25.0631 16.5 25.0631C28.146 25.0631 30.807 21.1831 31.349 19.9071C31.74 18.9961 31.938 17.3501 31.938 15.9641C31.938 15.6311 31.933 15.3601 31.917 15.0991C31.917 15.0521 31.896 15.0521 31.886 15.0941C31.303 18.2141 21.354 22.3651 12.76 22.3651ZM1.542 9.11507C1.073 10.0421 0.552 11.6151 0.396 12.4221C0.328 12.7711 0.36 12.9381 0.479 13.1981C1.458 15.2761 6.417 18.6041 17.974 18.6041C25.026 18.6041 30.505 16.8701 31.391 13.7081C31.552 13.1251 31.563 12.5101 31.355 11.6821C31.121 10.7601 30.683 9.68207 30.308 8.92207C30.298 8.89607 30.277 8.90107 30.282 8.93207C30.417 13.0781 18.855 15.7501 13.022 15.7501C6.699 15.7501 1.428 13.2341 1.428 10.0521C1.428 9.74507 1.491 9.44307 1.569 9.12507C1.579 9.09407 1.552 9.08907 1.542 9.11507ZM26.516 4.02607C26.5876 4.13405 26.6239 4.26157 26.62 4.39107C26.62 6.16707 21.188 9.30207 12.547 9.30207C6.198 9.30207 5.011 6.94807 5.011 5.45307C5.011 4.91707 5.214 4.36407 5.667 3.81207C5.693 3.77607 5.672 3.76507 5.641 3.79107C4.81515 4.49023 4.06291 5.27196 3.396 6.12407C3.078 6.52507 2.88 6.87907 2.88 7.09307C2.88 10.1971 10.661 12.4471 17.943 12.4471C25.698 12.4471 29.157 9.91607 29.157 7.69207C29.157 6.90007 28.85 6.43207 28.058 5.53107C27.542 4.94807 27.058 4.47407 26.542 4.00507C26.516 3.98407 26.5 4.00007 26.516 4.02607ZM24.141 2.25007C21.6729 0.769442 18.8471 -0.00858026 15.969 7.13753e-05C12.953 7.13753e-05 10.089 0.844071 7.688 2.31807C6.969 2.76107 6.563 3.11507 6.563 3.57307C6.563 4.92207 9.709 6.36507 15.292 6.36507C20.818 6.36507 25.099 4.78207 25.099 3.25607C25.099 2.89107 24.781 2.63507 24.141 2.25007Z" fill="white"/>
<path d="M43.912 26.12V6.44H41.64C40.5093 6.44 39.6133 6.728 38.952 7.304C38.2907 7.85867 37.96 8.85067 37.96 10.28H37V7.56C37 7.13333 37.0747 6.728 37.224 6.344C37.3733 5.93867 37.64 5.61867 38.024 5.384C38.4293 5.128 38.9947 5 39.72 5H54.76V6.44H48.072V26.12H43.912Z" fill="white"/>
<path d="M61.4137 26.44C59.8351 26.44 58.4697 26.0987 57.3177 25.416C56.1657 24.712 55.2804 23.7627 54.6618 22.568C54.0431 21.3733 53.7337 20.0507 53.7337 18.6C53.7337 17.128 54.0431 15.8053 54.6618 14.632C55.2804 13.4373 56.1657 12.4987 57.3177 11.816C58.4697 11.112 59.8351 10.76 61.4137 10.76C63.0138 10.76 64.3791 11.112 65.5098 11.816C66.6618 12.4987 67.5471 13.4373 68.1657 14.632C68.7844 15.8053 69.0938 17.128 69.0938 18.6C69.0938 20.0507 68.7844 21.3733 68.1657 22.568C67.5471 23.7627 66.6618 24.712 65.5098 25.416C64.3791 26.0987 63.0138 26.44 61.4137 26.44ZM61.4137 25C62.1604 25 62.7791 24.7227 63.2698 24.168C63.7818 23.6133 64.1551 22.856 64.3898 21.896C64.6458 20.9147 64.7738 19.816 64.7738 18.6C64.7738 17.3627 64.6458 16.264 64.3898 15.304C64.1551 14.344 63.7818 13.5867 63.2698 13.032C62.7791 12.4773 62.1604 12.2 61.4137 12.2C60.6671 12.2 60.0377 12.4773 59.5257 13.032C59.0351 13.5867 58.6618 14.344 58.4058 15.304C58.1711 16.264 58.0537 17.3627 58.0537 18.6C58.0537 19.816 58.1711 20.9147 58.4058 21.896C58.6618 22.856 59.0351 23.6133 59.5257 24.168C60.0377 24.7227 60.6671 25 61.4137 25Z" fill="white"/>
<path d="M72.798 26.12V15.24C72.798 14.28 72.67 13.512 72.414 12.936C72.158 12.3387 71.55 12.04 70.59 12.04H70.27V11.08H73.438C74.1633 11.08 74.7287 11.176 75.134 11.368C75.5607 11.5387 75.8913 11.8373 76.126 12.264C76.51 11.9227 77.0327 11.592 77.694 11.272C78.3767 10.9307 79.198 10.76 80.158 10.76C80.6273 10.76 81.054 10.8133 81.438 10.92C81.822 11.0267 82.1527 11.1867 82.43 11.4C82.7927 11.656 83.0593 11.9653 83.23 12.328C83.422 12.6907 83.518 12.8613 83.518 12.84L81.886 14.088C81.694 13.8107 81.406 13.5333 81.022 13.256C80.6593 12.9787 80.2113 12.84 79.678 12.84C78.9953 12.84 78.4193 12.936 77.95 13.128C77.4807 13.32 77.1073 13.5547 76.83 13.832C76.8727 14.216 76.9047 14.5253 76.926 14.76C76.9473 14.9947 76.958 15.1973 76.958 15.368V26.12H72.798Z" fill="white"/>
<path d="M90.941 26.44C89.6183 26.44 88.5303 26.3227 87.677 26.088C86.845 25.8533 86.2157 25.5333 85.789 25.128C85.405 24.7653 85.181 24.2427 85.117 23.56C85.053 22.8773 85.021 22.1307 85.021 21.32H86.141C86.3117 22.344 86.7277 23.2187 87.389 23.944C88.0503 24.648 89.021 25 90.301 25C91.4957 25 92.3277 24.7973 92.797 24.392C93.2663 23.9653 93.501 23.4427 93.501 22.824C93.501 22.2053 93.2237 21.7147 92.669 21.352C92.1143 20.968 91.4317 20.5947 90.621 20.232L88.957 19.528C87.677 18.9733 86.6743 18.344 85.949 17.64C85.2237 16.936 84.861 16.0613 84.861 15.016C84.861 13.6293 85.437 12.5733 86.589 11.848C87.741 11.1227 89.1917 10.76 90.941 10.76C92.2637 10.76 93.341 10.8773 94.173 11.112C95.0263 11.3467 95.6663 11.6667 96.093 12.072C96.477 12.4347 96.701 12.9573 96.765 13.64C96.829 14.3227 96.861 15.0693 96.861 15.88H95.741C95.5703 14.856 95.1543 13.992 94.493 13.288C93.8317 12.5627 92.861 12.2 91.581 12.2C90.621 12.2 89.9277 12.4133 89.501 12.84C89.0743 13.2453 88.861 13.7573 88.861 14.376C88.861 14.952 89.0637 15.4213 89.469 15.784C89.8743 16.1253 90.429 16.4453 91.133 16.744L93.053 17.544C94.525 18.1627 95.6343 18.8133 96.381 19.496C97.1277 20.1573 97.501 21.0533 97.501 22.184C97.501 23.5707 96.8823 24.6267 95.645 25.352C94.4077 26.0773 92.8397 26.44 90.941 26.44Z" fill="white"/>
<path fill-rule="evenodd" clip-rule="evenodd" d="M104.497 22C104.563 22 104.629 22.013 104.69 22.0385C104.751 22.0639 104.806 22.1012 104.853 22.1483C104.9 22.1953 104.937 22.2512 104.962 22.3127C104.987 22.3741 105 22.44 105 22.5065V25.4933C105 25.5599 104.987 25.6257 104.962 25.6872C104.937 25.7487 104.9 25.8045 104.853 25.8516C104.806 25.8986 104.751 25.936 104.69 25.9614C104.629 25.9869 104.563 26 104.497 26H101.503C101.436 26 101.371 25.9869 101.31 25.9614C101.249 25.936 101.194 25.8986 101.147 25.8516C101.1 25.8045 101.063 25.7486 101.038 25.6871C101.013 25.6257 101 25.5598 101 25.4932V22.5065C101 22.3722 101.053 22.2434 101.147 22.1484C101.241 22.0534 101.369 22 101.503 22H104.497Z" fill="white"/>
</svg>
